<mxfile host="Electron" modified="2024-01-25T05:27:46.145Z" agent="Mozilla/5.0 (Windows NT 10.0; Win64; x64) AppleWebKit/537.36 (KHTML, like Gecko) draw.io/22.1.21 Chrome/120.0.6099.109 Electron/28.1.0 Safari/537.36" etag="rRuNAfp4nliOoSRbxzFg" version="22.1.21" type="device">
  <diagram id="4yRZzkWTphoRUFnXlxY0" name="ページ1">
    <mxGraphModel dx="989" dy="577" grid="1" gridSize="10" guides="1" tooltips="1" connect="1" arrows="1" fold="1" page="1" pageScale="1" pageWidth="1169" pageHeight="827" math="1" shadow="0">
      <root>
        <mxCell id="0" />
        <mxCell id="1" parent="0" />
        <mxCell id="lnlVBWdU703_qIWzkPrC-9" style="edgeStyle=orthogonalEdgeStyle;rounded=0;orthogonalLoop=1;jettySize=auto;html=1;exitX=1;exitY=1;exitDx=0;exitDy=0;exitPerimeter=0;entryX=0.4;entryY=0.488;entryDx=0;entryDy=0;entryPerimeter=0;endArrow=none;endFill=0;" parent="1" source="lnlVBWdU703_qIWzkPrC-5" target="lnlVBWdU703_qIWzkPrC-8" edge="1">
          <mxGeometry relative="1" as="geometry">
            <Array as="points">
              <mxPoint x="520" y="380" />
            </Array>
          </mxGeometry>
        </mxCell>
        <mxCell id="lnlVBWdU703_qIWzkPrC-15" style="edgeStyle=orthogonalEdgeStyle;shape=connector;rounded=0;orthogonalLoop=1;jettySize=auto;html=1;exitX=1;exitY=0;exitDx=0;exitDy=0;exitPerimeter=0;entryX=0.5;entryY=1;entryDx=0;entryDy=0;labelBackgroundColor=default;strokeColor=default;fontFamily=Helvetica;fontSize=11;fontColor=default;endArrow=none;endFill=0;" parent="1" source="lnlVBWdU703_qIWzkPrC-5" target="lnlVBWdU703_qIWzkPrC-12" edge="1">
          <mxGeometry relative="1" as="geometry" />
        </mxCell>
        <mxCell id="lnlVBWdU703_qIWzkPrC-5" value="" style="verticalLabelPosition=bottom;shadow=0;dashed=0;align=center;html=1;verticalAlign=top;shape=stencil(tVZNc4MgFPw1XDsqMbbHjk1ubQ859EwRKxMFB0iT/vsi2E7wg1FjHGcc9snuvn3ECYCpLFBNQBQgWROsAHwBUZTTC8n0U8OFRcIwsGuGKmKht9f3g8WkEvxIzjRT7duUFURQZatniyWGAO5A8KzB5oYp5oxpUcqZdCpXdc2NKFOu8s4y11qkIooIC7cOL61ju/pxaiDazxE6zBcKFwl9TNAJ3IYe4mElmGpkLFiYfiJ8/BL8xLJBfxJ9E4/9GjUj7hX+yhU3uwcNxyN+XYaSsiuGTTiDwjTeM2jQkaZhmnNBfGmYg71WHp1u4O2BJAsCuU9vSed0zm+tw7AonXhtCn/AkxpZgeL/43uXOQsilf4ZeN/AylNe9yTFGze+BUdp+3TzBDouHie5yGlZYl5yoZf2aTaDCAbmmsKBSy59WfpG3eiPDsNs7X3vDGr/AhjgFw==);pointerEvents=1;" parent="1" vertex="1">
          <mxGeometry x="460" y="270" width="60" height="100" as="geometry" />
        </mxCell>
        <mxCell id="lnlVBWdU703_qIWzkPrC-10" style="edgeStyle=orthogonalEdgeStyle;shape=connector;rounded=0;orthogonalLoop=1;jettySize=auto;html=1;exitX=1;exitY=1;exitDx=0;exitDy=0;exitPerimeter=0;labelBackgroundColor=default;strokeColor=default;fontFamily=Helvetica;fontSize=11;fontColor=default;endArrow=none;endFill=0;" parent="1" source="lnlVBWdU703_qIWzkPrC-6" target="lnlVBWdU703_qIWzkPrC-8" edge="1">
          <mxGeometry relative="1" as="geometry">
            <Array as="points">
              <mxPoint x="600" y="380" />
            </Array>
          </mxGeometry>
        </mxCell>
        <mxCell id="lnlVBWdU703_qIWzkPrC-16" style="edgeStyle=orthogonalEdgeStyle;shape=connector;rounded=0;orthogonalLoop=1;jettySize=auto;html=1;exitX=1;exitY=0;exitDx=0;exitDy=0;exitPerimeter=0;entryX=0.5;entryY=1;entryDx=0;entryDy=0;labelBackgroundColor=default;strokeColor=default;fontFamily=Helvetica;fontSize=11;fontColor=default;endArrow=none;endFill=0;" parent="1" source="lnlVBWdU703_qIWzkPrC-6" target="lnlVBWdU703_qIWzkPrC-14" edge="1">
          <mxGeometry relative="1" as="geometry" />
        </mxCell>
        <mxCell id="lnlVBWdU703_qIWzkPrC-6" value="" style="verticalLabelPosition=bottom;shadow=0;dashed=0;align=center;html=1;verticalAlign=top;shape=stencil(tVZNc4MgFPw1XDsqMbbHjk1ubQ859EwRKxMFB0iT/vsi2E7wg1FjHGcc9snuvn3ECYCpLFBNQBQgWROsAHwBUZTTC8n0U8OFRcIwsGuGKmKht9f3g8WkEvxIzjRT7duUFURQZatniyWGAO5A8KzB5oYp5oxpUcqZdCpXdc2NKFOu8s4y11qkIooIC7cOL61ju/pxaiDazxE6zBcKFwl9TNAJ3IYe4mElmGpkLFiYfiJ8/BL8xLJBfxJ9E4/9GjUj7hX+yhU3uwcNxyN+XYaSsiuGTTiDwjTeM2jQkaZhmnNBfGmYg71WHp1u4O2BJAsCuU9vSed0zm+tw7AonXhtCn/AkxpZgeL/43uXOQsilf4ZeN/AylNe9yTFGze+BUdp+3TzBDouHie5yGlZYl5yoZf2aTaDCAbmmsKBSy59WfpG3eiPDsNs7X3vDGr/AhjgFw==);pointerEvents=1;direction=east;flipH=1;" parent="1" vertex="1">
          <mxGeometry x="600" y="270" width="60" height="100" as="geometry" />
        </mxCell>
        <mxCell id="lnlVBWdU703_qIWzkPrC-11" style="edgeStyle=orthogonalEdgeStyle;shape=connector;rounded=0;orthogonalLoop=1;jettySize=auto;html=1;labelBackgroundColor=default;strokeColor=default;fontFamily=Helvetica;fontSize=11;fontColor=default;endArrow=none;endFill=0;" parent="1" source="lnlVBWdU703_qIWzkPrC-22" target="lnlVBWdU703_qIWzkPrC-8" edge="1">
          <mxGeometry relative="1" as="geometry">
            <mxPoint x="560" y="416" as="sourcePoint" />
          </mxGeometry>
        </mxCell>
        <mxCell id="lnlVBWdU703_qIWzkPrC-8" value="" style="shape=waypoint;sketch=0;fillStyle=solid;size=6;pointerEvents=1;points=[];fillColor=none;resizable=0;rotatable=0;perimeter=centerPerimeter;snapToPoint=1;fontFamily=Helvetica;fontSize=11;fontColor=default;" parent="1" vertex="1">
          <mxGeometry x="540" y="360" width="40" height="40" as="geometry" />
        </mxCell>
        <mxCell id="lnlVBWdU703_qIWzkPrC-12" value="" style="verticalLabelPosition=bottom;shadow=0;dashed=0;align=center;html=1;verticalAlign=top;strokeWidth=1;shape=ellipse;perimeter=ellipsePerimeter;aspect=fixed;fontFamily=Helvetica;fontSize=11;fontColor=default;" parent="1" vertex="1">
          <mxGeometry x="516" y="256" width="8" height="8" as="geometry" />
        </mxCell>
        <mxCell id="lnlVBWdU703_qIWzkPrC-14" value="" style="verticalLabelPosition=bottom;shadow=0;dashed=0;align=center;html=1;verticalAlign=top;strokeWidth=1;shape=ellipse;perimeter=ellipsePerimeter;aspect=fixed;fontFamily=Helvetica;fontSize=11;fontColor=default;" parent="1" vertex="1">
          <mxGeometry x="596" y="256" width="8" height="8" as="geometry" />
        </mxCell>
        <mxCell id="lnlVBWdU703_qIWzkPrC-23" style="edgeStyle=orthogonalEdgeStyle;shape=connector;rounded=0;orthogonalLoop=1;jettySize=auto;html=1;exitX=0;exitY=0.5;exitDx=0;exitDy=0;exitPerimeter=0;labelBackgroundColor=default;strokeColor=default;fontFamily=Helvetica;fontSize=11;fontColor=default;endArrow=none;endFill=0;" parent="1" source="lnlVBWdU703_qIWzkPrC-17" target="lnlVBWdU703_qIWzkPrC-22" edge="1">
          <mxGeometry relative="1" as="geometry">
            <Array as="points">
              <mxPoint x="450" y="480" />
              <mxPoint x="450" y="480" />
            </Array>
          </mxGeometry>
        </mxCell>
        <mxCell id="lnlVBWdU703_qIWzkPrC-17" value="" style="verticalLabelPosition=bottom;shadow=0;dashed=0;align=center;fillColor=strokeColor;html=1;verticalAlign=top;strokeWidth=1;shape=mxgraph.electrical.miscellaneous.monocell_battery;fontFamily=Helvetica;fontSize=11;fontColor=default;direction=north;" parent="1" vertex="1">
          <mxGeometry x="410" y="380" width="60" height="100" as="geometry" />
        </mxCell>
        <mxCell id="lnlVBWdU703_qIWzkPrC-28" style="edgeStyle=orthogonalEdgeStyle;shape=connector;rounded=0;orthogonalLoop=1;jettySize=auto;html=1;exitX=1;exitY=0.5;exitDx=0;exitDy=0;exitPerimeter=0;entryX=0;entryY=0.5;entryDx=0;entryDy=0;entryPerimeter=0;labelBackgroundColor=default;strokeColor=default;fontFamily=Helvetica;fontSize=11;fontColor=default;endArrow=none;endFill=0;" parent="1" source="lnlVBWdU703_qIWzkPrC-18" target="lnlVBWdU703_qIWzkPrC-5" edge="1">
          <mxGeometry relative="1" as="geometry" />
        </mxCell>
        <mxCell id="lnlVBWdU703_qIWzkPrC-18" value="" style="verticalLabelPosition=bottom;shadow=0;dashed=0;align=center;fillColor=strokeColor;html=1;verticalAlign=top;strokeWidth=1;shape=mxgraph.electrical.miscellaneous.monocell_battery;fontFamily=Helvetica;fontSize=11;fontColor=default;direction=north;" parent="1" vertex="1">
          <mxGeometry x="410" y="320" width="60" height="100" as="geometry" />
        </mxCell>
        <mxCell id="lnlVBWdU703_qIWzkPrC-24" style="edgeStyle=orthogonalEdgeStyle;shape=connector;rounded=0;orthogonalLoop=1;jettySize=auto;html=1;exitX=0;exitY=0.5;exitDx=0;exitDy=0;exitPerimeter=0;labelBackgroundColor=default;strokeColor=default;fontFamily=Helvetica;fontSize=11;fontColor=default;endArrow=none;endFill=0;" parent="1" source="lnlVBWdU703_qIWzkPrC-19" target="lnlVBWdU703_qIWzkPrC-22" edge="1">
          <mxGeometry relative="1" as="geometry">
            <Array as="points">
              <mxPoint x="680" y="480" />
              <mxPoint x="680" y="480" />
            </Array>
          </mxGeometry>
        </mxCell>
        <mxCell id="lnlVBWdU703_qIWzkPrC-19" value="" style="verticalLabelPosition=bottom;shadow=0;dashed=0;align=center;fillColor=strokeColor;html=1;verticalAlign=top;strokeWidth=1;shape=mxgraph.electrical.miscellaneous.monocell_battery;fontFamily=Helvetica;fontSize=11;fontColor=default;direction=north;" parent="1" vertex="1">
          <mxGeometry x="650" y="380" width="60" height="100" as="geometry" />
        </mxCell>
        <mxCell id="pecrcvPZ-ZO1mKL6Q0kn-1" style="edgeStyle=orthogonalEdgeStyle;rounded=0;orthogonalLoop=1;jettySize=auto;html=1;endArrow=none;endFill=0;entryX=0.5;entryY=0;entryDx=0;entryDy=0;" edge="1" parent="1" source="lnlVBWdU703_qIWzkPrC-22" target="pecrcvPZ-ZO1mKL6Q0kn-2">
          <mxGeometry relative="1" as="geometry">
            <mxPoint x="560" y="510" as="targetPoint" />
          </mxGeometry>
        </mxCell>
        <mxCell id="lnlVBWdU703_qIWzkPrC-22" value="" style="shape=waypoint;sketch=0;fillStyle=solid;size=6;pointerEvents=1;points=[];fillColor=none;resizable=0;rotatable=0;perimeter=centerPerimeter;snapToPoint=1;fontFamily=Helvetica;fontSize=11;fontColor=default;" parent="1" vertex="1">
          <mxGeometry x="540" y="460" width="40" height="40" as="geometry" />
        </mxCell>
        <mxCell id="lnlVBWdU703_qIWzkPrC-35" style="edgeStyle=orthogonalEdgeStyle;shape=connector;rounded=0;orthogonalLoop=1;jettySize=auto;html=1;exitX=1;exitY=0.5;exitDx=0;exitDy=0;exitPerimeter=0;entryX=0;entryY=0.5;entryDx=0;entryDy=0;entryPerimeter=0;labelBackgroundColor=default;strokeColor=default;fontFamily=Helvetica;fontSize=11;fontColor=default;endArrow=none;endFill=0;" parent="1" source="lnlVBWdU703_qIWzkPrC-29" target="lnlVBWdU703_qIWzkPrC-6" edge="1">
          <mxGeometry relative="1" as="geometry" />
        </mxCell>
        <mxCell id="lnlVBWdU703_qIWzkPrC-29" value="" style="verticalLabelPosition=bottom;shadow=0;dashed=0;align=center;fillColor=strokeColor;html=1;verticalAlign=top;strokeWidth=1;shape=mxgraph.electrical.miscellaneous.monocell_battery;fontFamily=Helvetica;fontSize=11;fontColor=default;direction=north;" parent="1" vertex="1">
          <mxGeometry x="650" y="320" width="60" height="100" as="geometry" />
        </mxCell>
        <mxCell id="lnlVBWdU703_qIWzkPrC-31" value="&lt;font style=&quot;font-size: 24px;&quot;&gt;`V_{G}`&lt;/font&gt;" style="text;html=1;align=center;verticalAlign=middle;resizable=0;points=[];autosize=1;strokeColor=none;fillColor=none;fontSize=11;fontFamily=Helvetica;fontColor=default;" parent="1" vertex="1">
          <mxGeometry x="430" y="440" width="100" height="40" as="geometry" />
        </mxCell>
        <mxCell id="lnlVBWdU703_qIWzkPrC-32" value="&lt;font style=&quot;font-size: 24px;&quot;&gt;`V_{G}`&lt;/font&gt;" style="text;html=1;align=center;verticalAlign=middle;resizable=0;points=[];autosize=1;strokeColor=none;fillColor=none;fontSize=11;fontFamily=Helvetica;fontColor=default;" parent="1" vertex="1">
          <mxGeometry x="594" y="440" width="100" height="40" as="geometry" />
        </mxCell>
        <mxCell id="lnlVBWdU703_qIWzkPrC-33" value="&lt;font style=&quot;font-size: 24px;&quot;&gt;\(V_{d i f f}\)&lt;br&gt;&lt;/font&gt;" style="text;html=1;align=center;verticalAlign=middle;resizable=0;points=[];autosize=1;strokeColor=none;fillColor=none;fontSize=11;fontFamily=Helvetica;fontColor=default;" parent="1" vertex="1">
          <mxGeometry x="320" y="374" width="150" height="40" as="geometry" />
        </mxCell>
        <mxCell id="lnlVBWdU703_qIWzkPrC-34" value="&lt;font style=&quot;font-size: 24px;&quot;&gt;`-V_{d i f f}`&lt;/font&gt;" style="text;html=1;align=center;verticalAlign=middle;resizable=0;points=[];autosize=1;strokeColor=none;fillColor=none;fontSize=11;fontFamily=Helvetica;fontColor=default;" parent="1" vertex="1">
          <mxGeometry x="660" y="374" width="140" height="40" as="geometry" />
        </mxCell>
        <mxCell id="lnlVBWdU703_qIWzkPrC-36" value="" style="endArrow=classic;html=1;rounded=0;labelBackgroundColor=default;strokeColor=default;fontFamily=Helvetica;fontSize=11;fontColor=default;shape=connector;" parent="1" edge="1">
          <mxGeometry x="-1" y="10" width="50" height="50" relative="1" as="geometry">
            <mxPoint x="500" y="242.5" as="sourcePoint" />
            <mxPoint x="500" y="277.5" as="targetPoint" />
            <mxPoint as="offset" />
          </mxGeometry>
        </mxCell>
        <mxCell id="lnlVBWdU703_qIWzkPrC-37" value="" style="endArrow=classic;html=1;rounded=0;labelBackgroundColor=default;strokeColor=default;fontFamily=Helvetica;fontSize=11;fontColor=default;shape=connector;" parent="1" edge="1">
          <mxGeometry x="-1" y="10" width="50" height="50" relative="1" as="geometry">
            <mxPoint x="620" y="242.5" as="sourcePoint" />
            <mxPoint x="620" y="277.5" as="targetPoint" />
            <mxPoint as="offset" />
          </mxGeometry>
        </mxCell>
        <mxCell id="lnlVBWdU703_qIWzkPrC-38" value="&lt;font style=&quot;font-size: 24px;&quot;&gt;`I_{L}`&lt;/font&gt;" style="text;html=1;align=center;verticalAlign=middle;resizable=0;points=[];autosize=1;strokeColor=none;fillColor=none;fontSize=11;fontFamily=Helvetica;fontColor=default;" parent="1" vertex="1">
          <mxGeometry x="435" y="240" width="90" height="40" as="geometry" />
        </mxCell>
        <mxCell id="lnlVBWdU703_qIWzkPrC-39" value="&lt;font style=&quot;font-size: 24px;&quot;&gt;`I_{R}`&lt;/font&gt;" style="text;html=1;align=center;verticalAlign=middle;resizable=0;points=[];autosize=1;strokeColor=none;fillColor=none;fontSize=11;fontFamily=Helvetica;fontColor=default;" parent="1" vertex="1">
          <mxGeometry x="595" y="240" width="90" height="40" as="geometry" />
        </mxCell>
        <mxCell id="lnlVBWdU703_qIWzkPrC-40" value="" style="endArrow=classic;html=1;rounded=0;labelBackgroundColor=default;strokeColor=default;fontFamily=Helvetica;fontSize=11;fontColor=default;shape=connector;" parent="1" edge="1">
          <mxGeometry x="-1" y="-4" width="50" height="50" relative="1" as="geometry">
            <mxPoint x="550" y="400" as="sourcePoint" />
            <mxPoint x="550" y="430" as="targetPoint" />
            <mxPoint as="offset" />
          </mxGeometry>
        </mxCell>
        <mxCell id="lnlVBWdU703_qIWzkPrC-41" value="&lt;font style=&quot;font-size: 24px;&quot;&gt;`I_{S}`&lt;/font&gt;" style="text;html=1;align=center;verticalAlign=middle;resizable=0;points=[];autosize=1;strokeColor=none;fillColor=none;fontSize=11;fontFamily=Helvetica;fontColor=default;" parent="1" vertex="1">
          <mxGeometry x="475" y="394" width="90" height="40" as="geometry" />
        </mxCell>
        <mxCell id="NZVZr7M9d-LbA0WSuXbg-1" value="&lt;font style=&quot;font-size: 24px;&quot;&gt;`g_{ml}`&lt;/font&gt;" style="text;html=1;align=center;verticalAlign=middle;resizable=0;points=[];autosize=1;strokeColor=none;fillColor=none;fontSize=11;fontFamily=Helvetica;fontColor=default;" parent="1" vertex="1">
          <mxGeometry x="410" y="280" width="110" height="40" as="geometry" />
        </mxCell>
        <mxCell id="NZVZr7M9d-LbA0WSuXbg-2" value="&lt;font style=&quot;font-size: 24px;&quot;&gt;`g_{mr}`&lt;/font&gt;" style="text;html=1;align=center;verticalAlign=middle;resizable=0;points=[];autosize=1;strokeColor=none;fillColor=none;fontSize=11;fontFamily=Helvetica;fontColor=default;" parent="1" vertex="1">
          <mxGeometry x="604" y="280" width="110" height="40" as="geometry" />
        </mxCell>
        <mxCell id="pecrcvPZ-ZO1mKL6Q0kn-2" value="" style="verticalLabelPosition=bottom;shadow=0;dashed=0;align=center;html=1;verticalAlign=top;strokeWidth=1;shape=ellipse;perimeter=ellipsePerimeter;fontFamily=Helvetica;fontSize=11;fontColor=default;aspect=fixed;" vertex="1" parent="1">
          <mxGeometry x="557" y="510" width="6" height="6" as="geometry" />
        </mxCell>
        <mxCell id="pecrcvPZ-ZO1mKL6Q0kn-3" value="" style="endArrow=none;dashed=1;html=1;dashPattern=1 3;strokeWidth=2;rounded=0;" edge="1" parent="1">
          <mxGeometry width="50" height="50" relative="1" as="geometry">
            <mxPoint x="560" y="550" as="sourcePoint" />
            <mxPoint x="560" y="520" as="targetPoint" />
          </mxGeometry>
        </mxCell>
        <mxCell id="pecrcvPZ-ZO1mKL6Q0kn-4" value="" style="endArrow=none;dashed=1;html=1;dashPattern=1 3;strokeWidth=2;rounded=0;" edge="1" parent="1">
          <mxGeometry width="50" height="50" relative="1" as="geometry">
            <mxPoint x="520" y="250" as="sourcePoint" />
            <mxPoint x="520" y="220" as="targetPoint" />
          </mxGeometry>
        </mxCell>
        <mxCell id="pecrcvPZ-ZO1mKL6Q0kn-5" value="" style="endArrow=none;dashed=1;html=1;dashPattern=1 3;strokeWidth=2;rounded=0;" edge="1" parent="1">
          <mxGeometry width="50" height="50" relative="1" as="geometry">
            <mxPoint x="599.72" y="250" as="sourcePoint" />
            <mxPoint x="599.72" y="220" as="targetPoint" />
          </mxGeometry>
        </mxCell>
      </root>
    </mxGraphModel>
  </diagram>
</mxfile>
